# xmcd
#
# Track frame offsets:
#	150
#	9722
#	23447
#	36855
#	47940
#	61445
#	71117
#	81340
#	90132
#	103137
#	113170
#	123037
#	137077
#	146345
#	160397
#	167662
#	179470
#	191815
#	203055
#	216892
#
# Disc length: 3010 seconds
#
# Revision: 0
# Processed by: cddbd v1.5.1PL0 Copyright (c) Steve Scherf et al.
# Submitted via: EasyCDDAExtractor 7.5.2.1
#
DISCID=190bc014
DTITLE=Les Paul and Mary Ford - Their Greatest Hits and Finest Performances (D
DTITLE=isc 3)
DYEAR=1900
DGENRE=
TTITLE0=San Antonio Rose
TTITLE1=That Old Feeling
TTITLE2=I'm Forever Blowing Bubbles
TTITLE3=Scarlet Ribbons (For Her Hair
TTITLE4=Nuevo Laredo
TTITLE5=Bewitched
TTITLE6=Texas Lady
TTITLE7=Three Little Words
TTITLE8=Amukiriki (The Lord Willing)
TTITLE9=Magic Melody
TTITLE10=Mister Sandman
TTITLE11=Cinco Robles (Five Oaks)
TTITLE12=Sleep
TTITLE13=It's a Lonesome Old Town (When You're Not Around)
TTITLE14=Jazz Me Blues
TTITLE15=On the Sunny Side of the Street
TTITLE16=I Wish I Had Never Seen Sunshine
TTITLE17=The Best Things In Life Are Free
TTITLE18=By the Light of the Silvery Moon
TTITLE19=Silent Night
EXTD=
EXTT0=
EXTT1=
EXTT2=
EXTT3=
EXTT4=
EXTT5=
EXTT6=
EXTT7=
EXTT8=
EXTT9=
EXTT10=
EXTT11=
EXTT12=
EXTT13=
EXTT14=
EXTT15=
EXTT16=
EXTT17=
EXTT18=
EXTT19=
PLAYORDER=
